<?xml version="1.0" standalone="no"?>
<!DOCTYPE svg PUBLIC "-//W3C//DTD SVG 20010904//EN"
 "http://www.w3.org/TR/2001/REC-SVG-20010904/DTD/svg10.dtd">
<svg version="1.0" xmlns="http://www.w3.org/2000/svg"
 width="200.000000pt" height="200.000000pt" viewBox="0 0 200.000000 200.000000"
 preserveAspectRatio="xMidYMid meet">
<metadata>
Created by potrace 1.14, written by Peter Selinger 2001-2017
</metadata>
<g transform="translate(0.000000,200.000000) scale(0.100000,-0.100000)"
fill="#000000" stroke="none">
<path d="M1026 1975 c-124 -51 -243 -158 -305 -275 -25 -47 -37 -60 -56 -60
-38 0 -253 -57 -347 -92 l-88 -32 0 -59 c0 -99 37 -317 76 -449 4 -14 -1 -18
-25 -18 -35 0 -67 -27 -77 -64 -3 -13 -4 -76 -2 -140 4 -161 11 -167 173 -156
11 0 37 -3 57 -7 33 -7 43 -17 79 -78 104 -173 273 -371 421 -491 l68 -56 85
72 c151 128 312 320 409 485 l40 71 86 0 c67 -1 91 3 113 18 51 35 60 65 52
192 -7 106 -9 116 -33 134 -13 11 -33 20 -43 20 -23 0 -23 -6 1 88 29 113 49
234 56 342 l7 95 -74 27 c-90 33 -239 76 -290 84 -48 8 -52 14 -68 93 -23 117
-81 221 -146 261 -43 27 -97 25 -169 -5z m144 -107 c11 -35 22 -51 42 -59 21
-9 32 -23 43 -62 8 -28 13 -52 11 -54 -2 -2 -15 1 -30 7 -44 16 -46 13 -46
-56 0 -126 -46 -270 -123 -384 -37 -55 -36 -69 5 -70 33 0 27 -17 -18 -49 -35
-26 -50 -31 -74 -26 -24 5 -37 1 -61 -19 -17 -14 -38 -26 -48 -26 -25 0 -64
46 -103 119 -31 61 -33 71 -37 188 -2 102 0 134 18 191 24 80 96 188 168 253
56 50 163 100 208 96 26 -2 32 -8 45 -49z m-745 -973 c0 -17 -8 -20 -47 -23
-43 -3 -48 -5 -48 -28 0 -21 4 -24 40 -24 33 0 40 -3 40 -20 0 -17 -7 -20 -40
-20 l-40 0 0 -40 c0 -36 -2 -40 -25 -40 l-25 0 0 110 0 111 73 -3 c64 -3 72
-5 72 -23z m142 13 c4 -7 22 -57 39 -110 l32 -98 -28 0 c-20 0 -31 6 -35 20
-5 15 -15 20 -45 20 -30 0 -40 -5 -45 -20 -4 -13 -15 -20 -31 -20 -13 0 -24 3
-24 6 0 12 52 179 62 197 10 20 63 23 75 5z m184 -44 l34 -56 5 54 c5 49 7 53
30 53 25 0 25 0 28 -107 l3 -108 -30 0 c-25 0 -34 8 -63 58 l-33 57 -3 -57
c-3 -57 -4 -58 -32 -58 l-30 0 0 103 c0 57 3 107 7 110 3 4 16 7 28 7 17 0 32
-15 56 -56z m296 -49 c18 -54 33 -103 33 -107 0 -4 -12 -8 -26 -8 -17 0 -28 6
-31 20 -4 16 -14 20 -45 20 -31 0 -41 -4 -45 -20 -4 -14 -14 -20 -35 -20 -16
0 -27 3 -25 8 2 4 19 53 36 110 l32 103 36 -3 36 -3 34 -100z m203 80 c0 -21
-5 -25 -30 -25 l-30 0 0 -85 c0 -84 0 -85 -25 -85 -25 0 -25 1 -25 85 l0 85
-30 0 c-25 0 -30 4 -30 25 0 25 1 25 85 25 84 0 85 0 85 -25z m88 -87 l3 -108
-31 0 -30 0 0 111 0 110 28 -3 27 -3 3 -107z m187 87 c0 -17 -6 -19 -33 -17
-46 5 -62 -12 -62 -67 0 -57 12 -71 62 -71 30 0 38 -4 38 -19 0 -35 -119 -34
-142 1 -4 7 -8 45 -8 84 0 97 16 115 100 111 38 -2 45 -5 45 -22z m183 -1 c3
-20 0 -21 -42 -17 -37 5 -47 2 -52 -12 -8 -21 11 -35 48 -35 36 0 58 -24 58
-64 0 -59 -28 -73 -127 -68 -25 2 -33 7 -33 21 0 17 8 20 53 23 66 4 72 28 10
43 -48 12 -60 21 -63 50 -7 68 14 87 89 83 48 -3 56 -6 59 -24z m-580 -274
c65 1 134 2 156 1 l38 -1 -17 -27 c-51 -78 -139 -188 -219 -271 l-90 -93 -49
48 c-64 63 -185 206 -237 283 l-41 60 43 1 c24 0 86 0 138 -1 52 0 102 4 109
9 10 6 22 6 34 -1 10 -5 71 -9 135 -8z"/>
<path d="M880 1720 c0 -6 7 -13 15 -16 22 -9 7 -26 -16 -19 -11 4 -19 2 -19
-4 0 -6 5 -11 10 -11 6 0 10 -6 10 -14 0 -10 -7 -12 -22 -9 -19 5 -21 3 -10
-8 16 -18 15 -29 -3 -29 -8 0 -15 -4 -15 -10 0 -5 5 -10 10 -10 6 0 10 -4 10
-10 0 -5 -9 -10 -20 -10 -11 0 -20 -4 -20 -10 0 -5 5 -10 10 -10 6 0 10 -4 10
-10 0 -5 -7 -10 -15 -10 -8 0 -15 -4 -15 -10 0 -5 5 -10 10 -10 6 0 10 -4 10
-10 0 -5 -7 -10 -15 -10 -8 0 -15 -4 -15 -10 0 -5 5 -10 10 -10 21 0 9 -30
-12 -31 l-23 0 23 -11 c12 -6 22 -15 22 -20 0 -4 -10 -8 -22 -8 -21 -1 -22 -2
-5 -14 9 -7 17 -18 17 -24 0 -7 12 -4 29 6 24 14 27 18 15 25 -13 8 -13 11 3
22 17 13 17 14 1 20 -10 4 -15 11 -12 16 3 5 9 7 14 4 5 -3 11 -1 15 5 3 5 1
10 -4 10 -6 0 -11 5 -11 10 0 6 7 10 15 10 18 0 19 12 3 28 -9 9 -8 12 5 12
20 0 22 11 5 28 -9 9 -7 12 12 12 19 0 21 3 12 12 -17 17 -15 28 5 28 13 0 14
3 5 12 -18 18 -14 30 8 23 20 -6 28 9 10 20 -18 11 -10 23 13 18 l22 -6 -20
21 c-24 24 -65 38 -65 22z"/>
<path d="M516 829 c-9 -47 -8 -49 18 -49 24 0 24 2 14 33 -16 47 -24 52 -32
16z"/>
<path d="M967 845 c-19 -68 -20 -65 7 -65 29 0 31 11 12 55 -11 27 -13 28 -19
10z"/>
</g>
</svg>
